<?xml version="1.0" encoding="UTF-8" ?>
<!DOCTYPE svg PUBLIC "-//W3C//DTD SVG 1.1//EN" "http://www.w3.org/Graphics/SVG/1.1/DTD/svg11.dtd">
<svg width="512pt" height="512pt" viewBox="0 0 512 512" version="1.1" xmlns="http://www.w3.org/2000/svg">
<g id="#ffffffff">
</g>
<g id="#eac435ff">
<path fill="#eac435" opacity="1.00" d=" M 82.87 48.20 C 84.53 47.79 86.13 47.07 87.85 47.00 C 113.20 46.98 138.54 47.02 163.88 46.99 C 164.58 47.74 165.29 48.48 166.02 49.20 C 168.76 76.29 170.49 103.50 173.28 130.59 C 173.56 130.82 174.11 131.27 174.39 131.50 C 189.15 131.11 204.00 132.08 218.73 131.00 C 219.71 104.26 221.85 77.57 222.87 50.83 C 223.20 48.92 224.67 46.66 226.89 47.01 C 246.29 47.06 265.69 46.87 285.09 47.10 C 286.94 46.81 288.39 48.26 289.02 49.86 C 290.60 77.04 291.97 104.24 293.56 131.42 C 309.02 131.20 324.49 132.18 339.92 130.92 C 341.16 110.57 342.83 90.24 344.39 69.92 C 345.33 63.36 344.78 56.64 346.11 50.14 C 346.69 48.90 347.05 46.65 348.92 46.99 C 373.98 47.02 399.04 47.00 424.09 46.99 C 426.15 46.98 427.98 48.03 429.75 48.96 C 429.14 85.28 429.22 121.61 428.89 157.94 C 428.70 176.30 428.12 194.65 428.14 213.02 C 428.16 214.58 428.06 216.15 427.83 217.70 C 425.29 218.54 422.68 219.21 419.99 219.10 C 368.49 219.33 316.99 219.94 265.50 220.65 C 265.54 301.44 265.54 382.22 265.55 463.01 C 265.57 466.32 266.07 469.71 265.00 472.93 C 264.27 475.57 261.82 477.76 258.95 477.32 C 205.30 477.71 151.65 477.30 98.00 477.52 C 94.09 477.51 90.14 477.70 86.27 476.97 C 83.77 475.59 82.35 472.75 82.46 469.93 C 82.43 331.95 82.82 193.97 82.46 56.00 C 82.56 53.40 82.06 50.72 82.87 48.20 M 136.16 275.25 C 135.81 307.82 136.09 340.40 136.02 372.98 C 145.00 373.01 153.99 372.98 162.97 373.00 C 171.35 373.20 179.88 371.84 187.52 368.32 C 198.03 363.67 205.46 353.71 208.47 342.79 C 211.65 330.80 211.76 317.98 208.75 305.94 C 205.85 294.11 197.28 283.69 185.79 279.34 C 170.00 273.02 152.69 276.16 136.16 275.25 Z" />
<path fill="#eac435" opacity="1.00" d=" M 330.09 275.19 C 338.07 275.07 346.06 275.18 354.05 275.13 C 354.40 301.02 354.11 326.93 354.19 352.83 C 368.34 352.92 382.49 352.84 396.64 352.87 C 396.81 359.59 396.92 366.34 396.59 373.05 C 374.39 372.95 352.20 373.04 330.00 373.00 C 330.06 340.40 329.88 307.79 330.09 275.19 Z" />
<path fill="#eac435" opacity="1.00" d=" M 159.98 294.60 C 167.24 294.26 175.57 295.50 180.42 301.51 C 186.32 308.51 186.42 318.30 186.20 326.99 C 186.18 335.39 183.90 344.76 176.71 349.91 C 171.82 353.09 165.70 354.30 159.95 353.74 C 160.05 334.03 159.98 314.32 159.98 294.60 Z" />
</g>
</svg>
