<?xml version="1.0" encoding="UTF-8" ?>
<!DOCTYPE svg PUBLIC "-//W3C//DTD SVG 1.1//EN" "http://www.w3.org/Graphics/SVG/1.1/DTD/svg11.dtd">
<svg width="512pt" height="512pt" viewBox="0 0 512 512" version="1.1" xmlns="http://www.w3.org/2000/svg">
<g id="#ffffffff">
</g>
<g id="#001c2dff">
<path fill="#001c2d" opacity="1.00" d=" M 82.58 48.75 C 86.37 46.62 90.79 47.29 94.94 47.23 C 117.61 47.29 140.28 47.22 162.95 47.26 C 164.89 47.14 165.99 49.33 166.13 50.99 C 168.32 76.67 170.54 102.34 172.68 128.03 C 172.95 129.24 172.78 131.28 174.32 131.63 C 189.10 131.59 203.88 131.73 218.66 131.54 C 220.05 107.04 221.48 82.52 222.77 58.01 C 223.08 54.50 221.85 49.74 225.32 47.43 C 245.20 47.12 265.12 47.16 285.02 47.37 C 287.16 47.00 289.00 49.00 288.86 51.08 C 290.52 77.92 291.87 104.79 293.34 131.64 C 308.97 131.20 324.65 132.59 340.24 130.89 C 341.46 104.88 344.20 78.96 345.75 52.96 C 345.81 50.78 346.78 48.76 348.00 46.99 C 370.34 47.58 392.71 47.09 415.06 47.24 C 419.91 47.39 425.12 46.32 429.54 48.89 C 429.00 104.65 428.81 160.42 427.83 216.18 C 428.05 218.46 424.89 218.19 423.38 218.64 C 409.61 219.08 395.82 219.22 382.03 219.23 C 343.13 219.28 304.24 219.98 265.35 220.49 C 265.38 303.63 265.32 386.79 265.42 469.93 C 265.41 473.45 263.08 477.66 259.04 477.22 C 202.71 477.44 146.39 477.28 90.06 477.30 C 86.23 477.87 82.74 474.76 82.68 470.95 C 82.53 330.22 82.97 189.49 82.58 48.75 M 136.03 275.20 C 135.96 307.80 136.02 340.40 136.00 373.00 C 146.67 372.98 157.34 373.04 168.01 372.97 C 180.09 372.61 192.70 368.16 200.50 358.55 C 208.74 348.73 211.21 335.45 210.95 322.96 C 211.03 310.92 208.31 298.15 200.02 289.00 C 191.59 279.39 178.42 275.65 166.04 275.27 C 156.04 275.16 146.04 275.29 136.03 275.20 Z" />
<path fill="#001c2d" opacity="1.00" d=" M 330.19 275.39 C 338.13 275.41 346.06 275.47 353.99 275.36 C 354.33 301.20 354.05 327.06 354.13 352.90 C 368.26 352.92 382.39 352.91 396.51 352.91 C 396.53 359.60 396.52 366.30 396.52 373.00 C 374.39 372.99 352.27 373.02 330.14 372.98 C 330.22 340.45 330.11 307.92 330.19 275.39 Z" />
<path fill="#001c2d" opacity="1.00" d=" M 160.05 294.66 C 167.27 294.44 175.55 295.70 180.37 301.66 C 186.05 308.71 186.35 318.32 186.15 326.97 C 185.87 334.84 184.12 343.51 177.83 348.86 C 172.89 352.93 166.22 353.89 160.02 353.62 C 160.10 333.96 160.04 314.31 160.05 294.66 Z" />
</g>
</svg>
